<?xml version="1.0" encoding="UTF-8" standalone="no"?>
<svg
   xmlns:dc="http://purl.org/dc/elements/1.1/"
   xmlns:cc="http://creativecommons.org/ns#"
   xmlns:rdf="http://www.w3.org/1999/02/22-rdf-syntax-ns#"
   xmlns:svg="http://www.w3.org/2000/svg"
   xmlns="http://www.w3.org/2000/svg"
   xmlns:sodipodi="http://sodipodi.sourceforge.net/DTD/sodipodi-0.dtd"
   xmlns:inkscape="http://www.inkscape.org/namespaces/inkscape"
   version="1.1"
   id="svg2"
   xml:space="preserve"
   width="2318.4224"
   height="537.22791"
   viewBox="0 0 2318.4224 537.22791"
   sodipodi:docname="logo.svg"
   inkscape:version="1.0.2 (e86c870879, 2021-01-15)"><metadata
     id="metadata8"><rdf:RDF><cc:Work
         rdf:about=""><dc:format>image/svg+xml</dc:format><dc:type
           rdf:resource="http://purl.org/dc/dcmitype/StillImage" /><dc:title /></cc:Work></rdf:RDF></metadata><defs
     id="defs6"><clipPath
       clipPathUnits="userSpaceOnUse"
       id="clipPath20"><path
         d="M 0,2000 H 2500 V 0 H 0 Z"
         id="path18" /></clipPath></defs><sodipodi:namedview
     pagecolor="#2a2a2a"
     bordercolor="#666666"
     borderopacity="1"
     objecttolerance="10"
     gridtolerance="10"
     guidetolerance="10"
     inkscape:pageopacity="0"
     inkscape:pageshadow="2"
     inkscape:window-width="1920"
     inkscape:window-height="1057"
     id="namedview4"
     showgrid="false"
     fit-margin-top="0"
     fit-margin-left="0"
     fit-margin-right="0"
     fit-margin-bottom="0"
     inkscape:zoom="0.21937499"
     inkscape:cx="786.09556"
     inkscape:cy="706.07067"
     inkscape:window-x="-8"
     inkscape:window-y="-8"
     inkscape:window-maximized="1"
     inkscape:current-layer="g10"
     inkscape:document-rotation="0" /><g
     id="g10"
     inkscape:groupmode="layer"
     inkscape:label="Логотип"
     transform="matrix(1.3333333,0,0,-1.3333333,-507.45545,1619.2617)"><g
       id="g919"><path
         d="m 1025.4033,1006.3042 c 2.494,5.272 5.187,10.221 8.06,15.18 2.872,4.934 5.923,9.772 9.174,14.494 6.506,9.429 13.786,18.461 22.376,26.376 4.298,3.943 8.943,7.591 14.041,10.633 5.075,3.051 10.647,5.482 16.552,6.735 5.887,1.263 12.084,1.306 17.892,-0.075 2.905,-0.674 5.711,-1.651 8.396,-2.843 2.675,-1.219 5.203,-2.682 7.635,-4.258 -2.519,1.455 -5.113,2.785 -7.825,3.86 -2.723,1.048 -5.534,1.87 -8.404,2.387 -5.74,1.066 -11.682,0.716 -17.235,-0.765 -5.57,-1.475 -10.752,-4.052 -15.451,-7.217 -4.72,-3.153 -8.994,-6.882 -12.932,-10.895 -7.868,-8.051 -14.457,-17.176 -20.277,-26.67 -2.907,-4.754 -5.619,-9.616 -8.146,-14.557 -2.509,-4.923 -4.913,-10.002 -6.943,-14.986 z"
         style="fill:#ffffff;fill-opacity:1;fill-rule:nonzero;stroke:none"
         id="path24" /><path
         d="m 1065.1875,996.5059 c -2.798,30.667 -28.474,18.223 -33.046,23.99 -13.415,16.92 -40.293,-0.976 -40.293,-23.99 0,-2.998 0.291,-5.915 0.821,-8.732 8.13,-4.164 15.759,-9.562 22.649,-16.484 0.57,-0.574 1.111,-1.172 1.63,-1.787 0.602,0.426 1.192,0.865 1.831,1.253 6.866,4.162 14.041,6.604 22.034,6.462 6.099,-0.108 8.7,-1.487 13.692,-2.852 -0.742,0.105 -1.485,0.21 -2.227,0.315 2.485,-0.51 4.835,-1.225 7.087,-2.168 4.317,6.8 6.634,15.081 5.822,23.993"
         style="fill:#ef3363;fill-opacity:1;fill-rule:nonzero;stroke:none"
         id="path28" /><path
         d="m 435.7686,954.1318 c 20.861,0 36.459,8.873 46.785,26.632 8.818,15.501 12.366,35.006 10.649,58.514 -1.509,22.505 -7.421,42.01 -17.747,58.515 -10.97,17.752 -24.2,26.631 -39.687,26.631 z m 43.559,173.293 c 20.862,0 37.639,-9.131 50.335,-27.382 11.617,-16.756 17.852,-37.011 18.713,-60.765 0.857,-24.006 -3.982,-44.261 -14.518,-60.765 -11.617,-18.509 -27.86,-27.757 -48.722,-27.757 h -104.544 v 257.313 h 131.647 v -3.375 h -76.47 v -77.269 z"
         style="fill:#ffffff;fill-opacity:1;fill-rule:nonzero;stroke:none"
         id="path90" /><path
         d="m 806.5029,1214.4463 v -263.69 h -55.174 v 171.793 l -107.126,-178.17 h -3.548 v 263.69 h 55.176 v -171.792 l 107.447,178.169 z"
         style="fill:#ffffff;fill-opacity:1;fill-rule:nonzero;stroke:none"
         id="path94" /><path
         d="m 1094.9629,981.8887 c -19.794,-23.011 -45.495,-34.51 -77.115,-34.51 -38.292,0 -68.3,13.75 -90.024,41.262 -19.575,24.251 -29.362,54.259 -29.362,90.022 0,35.505 9.463,65.887 28.396,91.147 20.65,27.506 47.964,41.26 81.955,41.26 21.941,0 41.3,-3.627 58.079,-10.877 5.375,-2.503 10.214,-5.128 14.52,-7.877 1.291,-1.002 2.472,-1.876 3.549,-2.625 l 0.969,-1.126 0.645,-0.375 -1.936,-2.25 c -4.518,4.249 -11.188,8 -20.005,11.252 -9.897,3.499 -20.005,5.374 -30.331,5.627 -26.03,0.75 -45.818,-10.005 -59.368,-32.259 -12.479,-20.506 -18.715,-48.762 -18.715,-84.77 0,-86.525 24.305,-129.783 72.922,-129.783 12.471,0 25.271,3.247 38.395,9.753 11.184,5.497 19.684,11.627 25.49,18.379 z"
         style="fill:#ffffff;fill-opacity:1;fill-rule:nonzero;stroke:none"
         id="path98" /><path
         d="m 1298.2402,950.0059 c -4.516,9.998 -14.843,34.631 -30.976,73.893 -5.163,12.753 -10.863,26.631 -17.101,41.635 -1.934,5.252 -3.983,10.374 -6.13,15.38 -0.646,1.746 -1.291,3.498 -1.937,5.25 l -0.966,1.875 -0.646,1.501 -6.454,-9.752 v -129.032 h -55.174 v 257.313 h 55.174 v -123.029 l 83.569,123.029 h 2.582 l -49.044,-73.143 c 0.427,-1.253 1.073,-2.753 1.936,-4.5 0.857,-2.251 1.824,-4.63 2.903,-7.127 2.793,-6.751 5.809,-13.756 9.036,-21.005 9.034,-21.006 17.311,-40.511 24.845,-58.515 23.659,-54.764 37.319,-85.773 40.977,-93.023"
         style="fill:#ffffff;fill-opacity:1;fill-rule:nonzero;stroke:none"
         id="path102" /><path
         d="m 1490.2227,954.1318 c 21.724,0 38.286,8.123 49.689,24.381 10.109,14.254 14.626,32.006 13.551,53.263 -1.077,21.005 -7.096,38.881 -18.068,53.638 -11.831,16.252 -26.892,24.382 -45.172,24.382 z m 0,159.039 c 16.99,0 29.25,3.377 36.784,10.128 7.742,6.751 11.614,17.629 11.614,32.633 0,32.504 -16.132,48.762 -48.398,48.762 z m 49.368,-3.375 c 22.584,0 40.543,-8.252 53.883,-24.756 11.829,-14.758 17.959,-33.009 18.393,-54.764 0.211,-21.51 -5.274,-39.76 -16.456,-54.764 -12.479,-16.504 -29.257,-24.756 -50.335,-24.756 h -110.029 v 257.313 h 104.544 c 12.472,0 22.908,-4.002 31.299,-12.003 8.599,-8.251 12.905,-19.257 12.905,-33.007 0,-14.254 -4.306,-26.135 -12.905,-35.634 -8.606,-9.506 -19.039,-14.254 -31.299,-14.254 z"
         style="fill:#ffffff;fill-opacity:1;fill-rule:nonzero;stroke:none"
         id="path106" /><path
         d="m 1869.667,1214.4463 v -263.69 h -55.174 v 171.793 l -107.125,-178.17 h -3.549 v 263.69 h 55.176 v -171.792 l 107.447,178.169 z"
         style="fill:#ffffff;fill-opacity:1;fill-rule:nonzero;stroke:none"
         id="path110" /><path
         d="m 1953.5605,1208.0693 h 165.848 v -3.375 h -55.174 v -253.938 h -55.498 v 253.938 h -55.176 z"
         style="fill:#ffffff;fill-opacity:1;fill-rule:nonzero;stroke:none"
         id="path114" /><path
         d="m 1015.4707,1010.8804 c 3.938,1.395 6.892,6.314 5.271,9.337 -1.273,2.373 -5.062,3.018 -7.767,2.155 -4.217,-1.347 -7.102,-6.775 -5.35,-9.737 1.34,-2.267 5.166,-2.704 7.846,-1.755"
         style="fill:#ffffff;fill-opacity:1;fill-rule:nonzero;stroke:none"
         id="path118" /><g
         aria-label="СПРАВОЧНИК СОТРУДНИКОВ"
         transform="scale(1.0862865,-0.92056744)"
         id="text1008"
         style="font-style:normal;font-variant:normal;font-weight:300;font-stretch:normal;font-size:101.898px;line-height:1.25;font-family:oswald;-inkscape-font-specification:'oswald Light';letter-spacing:23.9814px;fill:#ffffff;fill-opacity:1;stroke:none;stroke-width:0.750003"><path
           d="m 371.84849,-894.69391 q -11.61637,0 -16.30368,-6.82717 -4.58541,-6.82716 -4.58541,-18.95303 v -32.81115 q 0,-12.43156 4.58541,-19.05493 4.68731,-6.72527 16.30368,-6.72527 10.59739,0 15.08091,6.01199 4.48351,6.01198 4.48351,17.42455 v 4.99301 h -7.33666 v -4.78921 q 0,-5.91008 -0.91708,-9.57841 -0.91708,-3.77023 -3.56643,-5.80819 -2.64935,-2.03796 -7.64235,-2.03796 -5.40059,0 -8.25374,2.24176 -2.85314,2.24175 -3.87212,6.21578 -1.01898,3.87212 -1.01898,9.986 v 35.15481 q 0,9.57841 2.85314,13.96003 2.95504,4.38161 10.2917,4.38161 7.23476,0 9.68031,-4.38161 2.44555,-4.48351 2.44555,-13.55244 v -5.40059 h 7.33666 v 4.8911 q 0,11.82017 -4.38162,18.23975 -4.38161,6.41957 -15.1828,6.41957 z"
           style="font-style:normal;font-variant:normal;font-weight:300;font-stretch:normal;font-family:oswald;-inkscape-font-specification:'oswald Light';fill:#ffffff;stroke-width:0.750003"
           id="path844" /><path
           d="m 427.52004,-978.25027 h 42.18577 v 82.53738 h -7.74425 v -76.7292 h -26.69728 v 76.7292 h -7.74424 z"
           style="font-style:normal;font-variant:normal;font-weight:300;font-stretch:normal;font-family:oswald;-inkscape-font-specification:'oswald Light';fill:#ffffff;stroke-width:0.750003"
           id="path846" /><path
           d="m 508.05466,-978.25027 h 19.76821 q 10.4955,0 14.97901,5.70629 4.58541,5.70628 4.58541,16.20178 0,9.57841 -4.78921,15.59039 -4.68731,6.01198 -14.67331,6.01198 h -12.12586 v 39.02694 h -7.74425 z m 17.62835,37.70226 q 7.64235,0 10.80119,-3.46453 3.26074,-3.56643 3.26074,-12.32966 0,-6.41958 -1.22278,-9.78221 -1.22277,-3.46453 -4.17782,-4.8911 -2.95504,-1.42658 -8.55943,-1.42658 h -9.986 v 31.89408 z"
           style="font-style:normal;font-variant:normal;font-weight:300;font-stretch:normal;font-family:oswald;-inkscape-font-specification:'oswald Light';fill:#ffffff;stroke-width:0.750003"
           id="path848" /><path
           d="m 592.56338,-978.25027 h 8.15184 l 17.52645,82.53738 h -7.64235 l -4.07592,-22.11187 h -19.66631 l -4.17782,22.11187 h -7.54045 z m 12.94104,54.82112 -8.76322,-44.52942 -8.76323,44.52942 z"
           style="font-style:normal;font-variant:normal;font-weight:300;font-stretch:normal;font-family:oswald;-inkscape-font-specification:'oswald Light';fill:#ffffff;stroke-width:0.750003"
           id="path850" /><path
           d="m 652.209,-978.25027 h 17.73025 q 10.80119,0 15.4885,5.40059 4.68731,5.2987 4.68731,15.1828 0,6.72527 -2.44555,11.51448 -2.44556,4.7892 -8.04995,5.91008 6.72527,1.83417 9.57842,7.43856 2.85314,5.60439 2.85314,13.24674 0,11.10688 -4.38161,17.52645 -4.27972,6.31768 -15.08091,6.31768 H 652.209 Z m 18.95303,35.5624 q 6.62337,0 9.27272,-3.77023 2.64935,-3.87212 2.64935,-11.20878 0,-5.19679 -1.42658,-8.35563 -1.32467,-3.15884 -4.7892,-4.68731 -3.36264,-1.52847 -9.57841,-1.52847 h -7.33666 v 29.55042 z m -0.1019,41.16679 q 5.2987,0 8.15184,-1.83416 2.95504,-1.93606 4.07592,-5.80819 1.22278,-3.87212 1.22278,-10.39359 0,-17.11887 -13.24674,-17.11887 h -11.31068 v 35.15481 z"
           style="font-style:normal;font-variant:normal;font-weight:300;font-stretch:normal;font-family:oswald;-inkscape-font-specification:'oswald Light';fill:#ffffff;stroke-width:0.750003"
           id="path852" /><path
           d="m 746.90751,-894.69391 q -11.61637,0 -16.50747,-6.62337 -4.78921,-6.62337 -4.78921,-18.74923 v -34.23773 q 0,-12.02397 4.8911,-18.34164 4.89111,-6.41958 16.40558,-6.41958 11.31068,0 16.20178,6.41958 4.89111,6.41957 4.89111,18.34164 v 34.33962 q 0,12.12587 -4.78921,18.74924 -4.7892,6.52147 -16.30368,6.52147 z m 0,-6.21578 q 7.54045,0 10.3936,-4.38161 2.85314,-4.48351 2.85314,-13.04295 v -37.39656 q 0,-8.55944 -2.85314,-12.83915 -2.75125,-4.27972 -10.3936,-4.27972 -7.74425,0 -10.59739,4.27972 -2.85314,4.17782 -2.85314,12.83915 v 37.39656 q 0,8.66133 2.85314,13.04295 2.85314,4.38161 10.59739,4.38161 z"
           style="font-style:normal;font-variant:normal;font-weight:300;font-stretch:normal;font-family:oswald;-inkscape-font-specification:'oswald Light';fill:#ffffff;stroke-width:0.750003"
           id="path854" /><path
           d="m 835.696,-933.92464 q -6.62337,1.73226 -12.12586,1.73226 -10.2917,0 -15.59039,-4.38161 -5.1968,-4.48351 -5.1968,-13.96003 v -27.71625 h 7.84615 v 27.71625 q 0,7.03097 3.66832,9.98601 3.66833,2.95504 10.69929,2.95504 5.2987,0 10.69929,-1.73227 v -38.92503 h 7.84615 v 82.53738 H 835.696 Z"
           style="font-style:normal;font-variant:normal;font-weight:300;font-stretch:normal;font-family:oswald;-inkscape-font-specification:'oswald Light';fill:#ffffff;stroke-width:0.750003"
           id="path856" /><path
           d="m 881.8911,-978.25027 h 7.84615 v 36.58138 h 25.98399 v -36.58138 h 7.74425 v 82.53738 h -7.74425 v -40.14781 h -25.98399 v 40.14781 h -7.84615 z"
           style="font-style:normal;font-variant:normal;font-weight:300;font-stretch:normal;font-family:oswald;-inkscape-font-specification:'oswald Light';fill:#ffffff;stroke-width:0.750003"
           id="path858" /><path
           d="m 961.8145,-978.25027 h 6.92906 v 65.41851 l 26.69728,-65.41851 h 6.01196 v 82.53738 h -6.92904 v -65.72421 l -26.59538,65.72421 h -6.11388 z"
           style="font-style:normal;font-variant:normal;font-weight:300;font-stretch:normal;font-family:oswald;-inkscape-font-specification:'oswald Light';fill:#ffffff;stroke-width:0.750003"
           id="path860" /><path
           d="m 1039.6999,-978.25027 h 7.8461 v 37.90605 h 5.8082 l 16.9151,-37.90605 h 7.8461 l -17.934,39.74022 20.6853,42.79716 h -7.8462 l -19.5644,-40.45351 h -5.9101 v 40.45351 h -7.8461 z"
           style="font-style:normal;font-variant:normal;font-weight:300;font-stretch:normal;font-family:oswald;-inkscape-font-specification:'oswald Light';fill:#ffffff;stroke-width:0.750003"
           id="path862" /><path
           d="m 1177.027,-894.69391 q -11.6164,0 -16.3037,-6.82717 -4.5854,-6.82716 -4.5854,-18.95303 v -32.81115 q 0,-12.43156 4.5854,-19.05493 4.6873,-6.72527 16.3037,-6.72527 10.5974,0 15.0809,6.01199 4.4835,6.01198 4.4835,17.42455 v 4.99301 h -7.3367 v -4.78921 q 0,-5.91008 -0.9171,-9.57841 -0.917,-3.77023 -3.5664,-5.80819 -2.6493,-2.03796 -7.6423,-2.03796 -5.4006,0 -8.2538,2.24176 -2.8531,2.24175 -3.8721,6.21578 -1.019,3.87212 -1.019,9.986 v 35.15481 q 0,9.57841 2.8532,13.96003 2.955,4.38161 10.2917,4.38161 7.2347,0 9.6803,-4.38161 2.4455,-4.48351 2.4455,-13.55244 v -5.40059 h 7.3367 v 4.8911 q 0,11.82017 -4.3816,18.23975 -4.3817,6.41957 -15.1828,6.41957 z"
           style="font-style:normal;font-variant:normal;font-weight:300;font-stretch:normal;font-family:oswald;-inkscape-font-specification:'oswald Light';fill:#ffffff;stroke-width:0.750003"
           id="path864" /><path
           d="m 1252.2629,-894.69391 q -11.6164,0 -16.5075,-6.62337 -4.7892,-6.62337 -4.7892,-18.74923 v -34.23773 q 0,-12.02397 4.8911,-18.34164 4.8911,-6.41958 16.4056,-6.41958 11.3107,0 16.2018,6.41958 4.8911,6.41957 4.8911,18.34164 v 34.33962 q 0,12.12587 -4.7892,18.74924 -4.7892,6.52147 -16.3037,6.52147 z m 0,-6.21578 q 7.5405,0 10.3936,-4.38161 2.8532,-4.48351 2.8532,-13.04295 v -37.39656 q 0,-8.55944 -2.8532,-12.83915 -2.7512,-4.27972 -10.3936,-4.27972 -7.7442,0 -10.5974,4.27972 -2.8531,4.17782 -2.8531,12.83915 v 37.39656 q 0,8.66133 2.8531,13.04295 2.8532,4.38161 10.5974,4.38161 z"
           style="font-style:normal;font-variant:normal;font-weight:300;font-stretch:normal;font-family:oswald;-inkscape-font-specification:'oswald Light';fill:#ffffff;stroke-width:0.750003"
           id="path866" /><path
           d="m 1320.3661,-972.23829 h -15.5903 v -6.01198 h 38.5174 v 6.01198 h -15.1828 v 76.5254 h -7.7443 z"
           style="font-style:normal;font-variant:normal;font-weight:300;font-stretch:normal;font-family:oswald;-inkscape-font-specification:'oswald Light';fill:#ffffff;stroke-width:0.750003"
           id="path868" /><path
           d="m 1376.3435,-978.25027 h 19.7682 q 10.4955,0 14.979,5.70629 4.5854,5.70628 4.5854,16.20178 0,9.57841 -4.7892,15.59039 -4.6873,6.01198 -14.6733,6.01198 h -12.1259 v 39.02694 h -7.7442 z m 17.6283,37.70226 q 7.6424,0 10.8012,-3.46453 3.2607,-3.56643 3.2607,-12.32966 0,-6.41958 -1.2227,-9.78221 -1.2228,-3.46453 -4.1779,-4.8911 -2.955,-1.42658 -8.5594,-1.42658 h -9.986 v 31.89408 z"
           style="font-style:normal;font-variant:normal;font-weight:300;font-stretch:normal;font-family:oswald;-inkscape-font-specification:'oswald Light';fill:#ffffff;stroke-width:0.750003"
           id="path870" /><path
           d="m 1448.3187,-891.12748 2.7513,0.1019 q 5.4006,0 7.7442,-1.42657 2.4456,-1.32468 3.057,-4.17782 0.7133,-2.95504 0.9171,-9.47652 l -17.6284,-72.14378 h 7.5405 l 8.4575,36.98897 5.5025,26.59538 4.7892,-26.59538 7.5404,-36.98897 h 7.5405 l -15.7942,72.55138 -0.6114,2.85314 q -1.6304,7.84615 -2.955,11.10688 -1.3247,3.36264 -4.7892,4.993 -3.4646,1.73227 -10.8012,1.73227 l -3.3627,-0.1019 z"
           style="font-style:normal;font-variant:normal;font-weight:300;font-stretch:normal;font-family:oswald;-inkscape-font-specification:'oswald Light';fill:#ffffff;stroke-width:0.750003"
           id="path872" /><path
           d="m 1509.1872,-901.52108 h 3.2607 q 3.9741,-2.85314 6.1139,-6.41957 2.2418,-3.66833 3.974,-13.65433 1.8342,-9.98601 3.1589,-29.95802 l 1.8341,-26.69727 h 31.0789 v 76.72919 h 6.7253 v 19.97201 h -6.1139 l -0.7133,-14.16382 h -42.4914 l -0.7133,14.16382 h -6.1139 z m 41.6763,0 v -70.81911 h -16.5075 l -1.5285,22.51946 q -1.2227,19.46252 -3.0569,29.14283 -1.7323,9.68031 -3.7702,13.04294 -2.038,3.26074 -5.7063,6.11388 z"
           style="font-style:normal;font-variant:normal;font-weight:300;font-stretch:normal;font-family:oswald;-inkscape-font-specification:'oswald Light';fill:#ffffff;stroke-width:0.750003"
           id="path874" /><path
           d="m 1599.1984,-978.25027 h 7.8462 v 36.58138 h 25.9839 v -36.58138 h 7.7443 v 82.53738 h -7.7443 v -40.14781 h -25.9839 v 40.14781 h -7.8462 z"
           style="font-style:normal;font-variant:normal;font-weight:300;font-stretch:normal;font-family:oswald;-inkscape-font-specification:'oswald Light';fill:#ffffff;stroke-width:0.750003"
           id="path876" /><path
           d="m 1679.1219,-978.25027 h 6.929 v 65.41851 l 26.6973,-65.41851 h 6.012 v 82.53738 h -6.9291 v -65.72421 l -26.5953,65.72421 h -6.1139 z"
           style="font-style:normal;font-variant:normal;font-weight:300;font-stretch:normal;font-family:oswald;-inkscape-font-specification:'oswald Light';fill:#ffffff;stroke-width:0.750003"
           id="path878" /><path
           d="m 1757.0072,-978.25027 h 7.8462 v 37.90605 h 5.8082 l 16.9151,-37.90605 h 7.8461 l -17.9341,39.74022 20.6853,42.79716 h -7.8461 l -19.5644,-40.45351 h -5.9101 v 40.45351 h -7.8462 z"
           style="font-style:normal;font-variant:normal;font-weight:300;font-stretch:normal;font-family:oswald;-inkscape-font-specification:'oswald Light';fill:#ffffff;stroke-width:0.750003"
           id="path880" /><path
           d="m 1849.9735,-894.69391 q -11.6164,0 -16.5075,-6.62337 -4.7892,-6.62337 -4.7892,-18.74923 v -34.23773 q 0,-12.02397 4.8911,-18.34164 4.8911,-6.41958 16.4056,-6.41958 11.3107,0 16.2018,6.41958 4.8911,6.41957 4.8911,18.34164 v 34.33962 q 0,12.12587 -4.7892,18.74924 -4.7892,6.52147 -16.3037,6.52147 z m 0,-6.21578 q 7.5404,0 10.3936,-4.38161 2.8531,-4.48351 2.8531,-13.04295 v -37.39656 q 0,-8.55944 -2.8531,-12.83915 -2.7513,-4.27972 -10.3936,-4.27972 -7.7443,0 -10.5974,4.27972 -2.8531,4.17782 -2.8531,12.83915 v 37.39656 q 0,8.66133 2.8531,13.04295 2.8531,4.38161 10.5974,4.38161 z"
           style="font-style:normal;font-variant:normal;font-weight:300;font-stretch:normal;font-family:oswald;-inkscape-font-specification:'oswald Light';fill:#ffffff;stroke-width:0.750003"
           id="path882" /><path
           d="m 1907.8869,-978.25027 h 17.7302 q 10.8012,0 15.4885,5.40059 4.6873,5.2987 4.6873,15.1828 0,6.72527 -2.4455,11.51448 -2.4456,4.7892 -8.05,5.91008 6.7253,1.83417 9.5784,7.43856 2.8532,5.60439 2.8532,13.24674 0,11.10688 -4.3816,17.52645 -4.2798,6.31768 -15.0809,6.31768 h -20.3796 z m 18.953,35.5624 q 6.6234,0 9.2727,-3.77023 2.6494,-3.87212 2.6494,-11.20878 0,-5.19679 -1.4266,-8.35563 -1.3247,-3.15884 -4.7892,-4.68731 -3.3627,-1.52847 -9.5784,-1.52847 h -7.3367 v 29.55042 z m -0.1019,41.16679 q 5.2987,0 8.1518,-1.83416 2.9551,-1.93606 4.0759,-5.80819 1.2228,-3.87212 1.2228,-10.39359 0,-17.11887 -13.2467,-17.11887 h -11.3107 v 35.15481 z"
           style="font-style:normal;font-variant:normal;font-weight:300;font-stretch:normal;font-family:oswald;-inkscape-font-specification:'oswald Light';fill:#ffffff;stroke-width:0.750003"
           id="path884" /></g></g></g></svg>
