<svg width="48" height="66" viewBox="0 0 48 66" fill="none" xmlns="http://www.w3.org/2000/svg">
<path d="M24.001 28.0518C31.7473 28.0518 38.0269 21.7722 38.0269 14.0259C38.0269 6.27961 31.7473 0 24.001 0C16.2547 0 9.9751 6.27961 9.9751 14.0259C9.9751 21.7722 16.2547 28.0518 24.001 28.0518Z" fill="white"/>
<path d="M29.9495 29.0066H18.049C8.14937 29.0066 0.0932617 37.0619 0.0932617 46.9632V61.5202L0.129921 61.7475L1.13357 62.0612C10.5819 65.0127 18.792 65.9992 25.5496 65.9992C38.7461 65.9992 46.3966 62.2347 46.8707 61.996L47.8075 61.5202H47.9061V46.9632C47.9069 37.0619 39.8524 29.0066 29.9495 29.0066ZM26.7715 57.2563L24.2038 61.0143C24.1687 61.0657 24.1133 61.0958 24.0522 61.0958C24.0506 61.0958 24.049 61.0958 24.0473 61.0958C23.9871 61.0958 23.9292 61.064 23.8958 61.0111L21.5105 57.2506C21.4901 57.2189 21.4804 57.1806 21.482 57.1398L22.6755 38.8892C22.682 38.7922 22.761 38.7189 22.8588 38.7189H25.3345C25.4314 38.7189 25.5113 38.7922 25.5194 38.8892L26.8017 57.1382C26.8066 57.1814 26.7944 57.2213 26.7715 57.2563ZM25.6098 38.1666H22.6665L20.1077 32.8778C20.1077 32.3703 20.5183 31.9613 21.0258 31.9613H27.1707C27.6766 31.9613 28.0872 32.3703 28.0872 32.8778L25.6098 38.1666Z" fill="white"/>
</svg>
