<svg width="72" height="45" viewBox="0 0 72 45" fill="none" xmlns="http://www.w3.org/2000/svg">
<path d="M52.4581 44.9495C51.9258 44.8459 51.5076 44.5147 51.2643 44.0039C51.0637 43.5828 51.0412 41.4149 51.0412 22.4896C51.0412 -0.61355 50.9873 0.845047 51.8621 0.253419C52.2142 0.0152719 52.7963 0 61.5204 0C70.4995 0 70.8173 0.00898141 71.21 0.273855C72.0432 0.835866 71.9996 -0.391114 71.9996 22.4896C71.9996 45.3702 72.0432 44.1433 71.21 44.7053C70.8184 44.9694 70.4854 44.9798 61.8017 44.9975C56.8505 45.0076 52.6458 44.986 52.4581 44.9495ZM62.4008 41.687C62.9332 41.3637 63.418 40.6393 63.4188 40.1661C63.4206 39.1911 62.5016 38.2766 61.5204 38.2766C59.9968 38.2766 59.1349 40.0134 60.0704 41.1981C60.6621 41.9475 61.6357 42.1517 62.4008 41.687ZM62.716 33.9041C63.212 33.6529 63.651 33.1513 63.9049 32.5459C64.189 31.8686 64.1757 31.3773 63.8543 30.6722C63.3313 29.525 62.2987 28.9587 61.0655 29.1429C60.2495 29.2649 59.2949 30.1536 59.0666 31.004C58.4982 33.1217 60.7415 34.9043 62.716 33.9041ZM68.6816 16.4536C69.0398 16.0295 69.0457 15.9864 69.0457 13.802C69.0457 11.6176 69.0398 11.5746 68.6816 11.1504L68.3174 10.7193H61.5324H54.7474L54.4064 11.0809C54.0734 11.4341 54.0654 11.4977 54.0654 13.802C54.0654 16.1063 54.0734 16.17 54.4064 16.5231L54.7474 16.8847H61.5324H68.3174L68.6816 16.4536ZM68.1437 4.79136C68.5775 4.28884 68.5775 3.69802 68.1436 3.19559L67.8042 2.80244H61.5204H55.2366L54.8972 3.19559C54.7105 3.41182 54.5577 3.76588 54.5577 3.98239C54.5577 4.46363 55.0147 5.07329 55.4396 5.15886C55.6122 5.19362 58.4648 5.21358 61.7789 5.20327L67.8044 5.18451L68.1437 4.79136ZM10.8826 44.4905C10.1366 44.0014 9.9683 43.4908 9.9683 41.7165C9.9683 39.9251 10.1195 39.4646 10.8543 39.0183C11.2674 38.7673 11.58 38.7447 14.6453 38.7442L17.9859 38.7438V36.1515V33.5593L10.3551 33.5561C3.21615 33.5535 2.68709 33.5363 2.14741 33.2921C1.43541 32.97 0.684724 32.2379 0.324147 31.5139C0.0614454 30.9865 0.0503704 30.5023 0.0137094 17.9453C-0.0206506 6.16811 -0.00216968 4.85729 0.207202 4.22932C0.495848 3.36362 1.1613 2.61695 2.04492 2.16731L2.72427 1.82162H23.8937C43.9308 1.82162 45.0982 1.83509 45.7182 2.07347C46.5331 2.38674 47.586 3.4759 47.7935 4.22022C47.8969 4.59141 47.9444 8.90318 47.9428 17.7955C47.9405 30.6034 47.9356 30.8377 47.6539 31.4574C47.2692 32.3042 46.7524 32.8272 45.9071 33.2253L45.2038 33.5565L37.5729 33.5578L29.9421 33.5592V36.1514V38.7437H33.2546C36.8433 38.7437 37.0778 38.7855 37.666 39.5305C37.9303 39.8651 37.9598 40.0885 37.9598 41.7563C37.9598 43.4241 37.9303 43.6475 37.666 43.9822C37.0139 44.808 37.6959 44.769 23.9358 44.768C11.5964 44.7671 11.2948 44.7607 10.8826 44.4904V44.4905ZM37.5147 29.9632L44.2895 29.8703V17.6325V5.39469H23.9723C12.7979 5.39469 3.6308 5.44199 3.60102 5.49979C3.57123 5.55759 3.57487 11.1064 3.60905 17.8305L3.67124 30.0562H17.2055C24.6494 30.0562 33.7885 30.0143 37.5146 29.9632H37.5147Z" fill="white"/>
</svg>
